<svg width="13" height="10" viewBox="0 0 13 10" fill="none" xmlns="http://www.w3.org/2000/svg">
<path d="M12.8476 0.948849L4.52799 9.83708C4.4797 9.88873 4.42235 9.9297 4.35922 9.95766C4.2961 9.98561 4.22844 10 4.1601 10C4.09177 10 4.02411 9.98561 3.96098 9.95766C3.89786 9.9297 3.84051 9.88873 3.79222 9.83708L0.152382 5.94848C0.0548135 5.84424 0 5.70286 0 5.55545C0 5.40804 0.0548135 5.26666 0.152382 5.16242C0.249951 5.05819 0.382283 4.99963 0.520266 4.99963C0.658249 4.99963 0.790581 5.05819 0.88815 5.16242L4.1601 8.65869L12.1118 0.162796C12.2094 0.0585595 12.3418 -1.09831e-09 12.4797 0C12.6177 1.09832e-09 12.75 0.0585595 12.8476 0.162796C12.9452 0.267034 13 0.40841 13 0.555823C13 0.703236 12.9452 0.844612 12.8476 0.948849Z" fill="url(#paint0_diamond_2087_114)"/>
<defs>
<radialGradient id="paint0_diamond_2087_114" cx="0" cy="0" r="1" gradientUnits="userSpaceOnUse" gradientTransform="translate(7.10224 7.90419) rotate(-118.76) scale(21.9263 5.70275)">
<stop offset="0.0885417" stop-color="white"/>
<stop offset="1" stop-color="#8C8C8C"/>
</radialGradient>
</defs>
</svg>
