<svg width="10" height="10" viewBox="0 0 10 10" fill="none" xmlns="http://www.w3.org/2000/svg">
<path d="M9.85378 9.14622C9.90024 9.19268 9.93709 9.24783 9.96223 9.30852C9.98737 9.36922 10.0003 9.43427 10.0003 9.49997C10.0003 9.56567 9.98737 9.63072 9.96223 9.69142C9.93709 9.75212 9.90024 9.80727 9.85378 9.85372C9.80733 9.90018 9.75218 9.93703 9.69148 9.96217C9.63078 9.98731 9.56573 10.0002 9.50003 10.0002C9.43433 10.0002 9.36928 9.98731 9.30858 9.96217C9.24789 9.93703 9.19274 9.90018 9.14628 9.85372L5.00003 5.70685L0.853784 9.85372C0.759963 9.94754 0.632716 10.0002 0.500034 10.0002C0.367352 10.0002 0.240104 9.94754 0.146284 9.85372C0.0524635 9.7599 -0.000244138 9.63265 -0.000244141 9.49997C-0.000244143 9.36729 0.0524635 9.24004 0.146284 9.14622L4.29316 4.99997L0.146284 0.853723C0.0524635 0.759902 -0.000244141 0.632655 -0.000244141 0.499973C-0.000244141 0.367291 0.0524635 0.240043 0.146284 0.146223C0.240104 0.0524025 0.367352 -0.000305176 0.500034 -0.000305176C0.632716 -0.000305176 0.759963 0.0524025 0.853784 0.146223L5.00003 4.2931L9.14628 0.146223C9.2401 0.0524025 9.36735 -0.000305178 9.50003 -0.000305176C9.63271 -0.000305173 9.75996 0.0524025 9.85378 0.146223C9.9476 0.240043 10.0003 0.367291 10.0003 0.499973C10.0003 0.632655 9.9476 0.759902 9.85378 0.853723L5.70691 4.99997L9.85378 9.14622Z" fill="url(#paint0_diamond_2087_128)"/>
<defs>
<radialGradient id="paint0_diamond_2087_128" cx="0" cy="0" r="1" gradientUnits="userSpaceOnUse" gradientTransform="translate(5.46332 7.90433) rotate(-112.889) scale(20.8655 4.61025)">
<stop offset="0.0885417" stop-color="white"/>
<stop offset="1" stop-color="#8C8C8C"/>
</radialGradient>
</defs>
</svg>
