<svg width="1445" height="891" viewBox="0 0 1445 891" fill="none" xmlns="http://www.w3.org/2000/svg">
<g clip-path="url(#clip0_80_24)">
<circle opacity="0.8" cx="168.646" cy="254.691" r="1.7703" fill="white"/>
<circle opacity="0.8" cx="421.568" cy="431.997" r="1.7703" fill="white"/>
<circle opacity="0.8" cx="648.415" cy="564.976" r="1.7703" fill="white"/>
<circle opacity="0.8" cx="889.602" cy="731.852" r="1.7703" fill="white"/>
<circle opacity="0.8" cx="1109.93" cy="523.257" r="1.7703" fill="white"/>
<circle opacity="0.8" cx="760.533" cy="370.722" r="1.7703" fill="white"/>
<circle opacity="0.8" cx="1198.58" cy="172.557" r="1.7703" fill="white"/>
<circle opacity="0.8" cx="1203.8" cy="327.699" r="1.7703" fill="white"/>
<circle opacity="0.8" cx="926.106" cy="288.588" r="1.7703" fill="white"/>
<circle opacity="0.8" cx="489.361" cy="21.326" r="1.7703" fill="white"/>
<circle opacity="0.8" cx="1025.19" cy="13.5037" r="1.7703" fill="white"/>
<circle opacity="0.8" cx="1338.08" cy="1.7703" r="1.7703" fill="white"/>
<circle opacity="0.5" cx="241.654" cy="317.27" r="1.7703" fill="white"/>
<circle opacity="0.5" cx="721.423" cy="627.555" r="1.7703" fill="white"/>
<circle opacity="0.5" cx="962.609" cy="794.43" r="1.7703" fill="white"/>
<circle opacity="0.5" cx="1182.94" cy="585.836" r="1.7703" fill="white"/>
<circle opacity="0.5" cx="833.543" cy="433.301" r="1.7703" fill="white"/>
<circle opacity="0.5" cx="614.518" cy="232.528" r="1.7703" fill="white"/>
<circle opacity="0.5" cx="969.129" cy="130.838" r="1.7703" fill="white"/>
<circle opacity="0.5" cx="1271.59" cy="235.136" r="1.7703" fill="white"/>
<circle opacity="0.5" cx="1276.81" cy="390.278" r="1.7703" fill="white"/>
<circle opacity="0.5" cx="562.369" cy="83.9043" r="1.7703" fill="white"/>
<circle opacity="0.5" cx="1098.2" cy="76.0821" r="1.7703" fill="white"/>
<circle opacity="0.5" cx="1411.09" cy="64.3484" r="1.7703" fill="white"/>
<circle opacity="0.8" cx="993.899" cy="888.298" r="1.7703" fill="white"/>
<circle opacity="0.8" cx="1214.23" cy="679.704" r="1.7703" fill="white"/>
<circle opacity="0.8" cx="864.832" cy="527.169" r="1.7703" fill="white"/>
<circle opacity="0.8" cx="645.807" cy="326.396" r="1.7703" fill="white"/>
<circle opacity="0.8" cx="1302.88" cy="329.003" r="1.7703" fill="white"/>
<circle opacity="0.8" cx="1308.1" cy="484.146" r="1.7703" fill="white"/>
<circle opacity="0.8" cx="593.658" cy="177.772" r="1.7703" fill="white"/>
<circle opacity="0.8" cx="1442.38" cy="158.216" r="1.7703" fill="white"/>
<circle cx="421.568" cy="588.443" r="1.7703" fill="white"/>
<circle cx="889.602" cy="888.298" r="1.7703" fill="white"/>
<circle cx="1109.93" cy="679.703" r="1.7703" fill="white"/>
<circle cx="760.533" cy="527.169" r="1.7703" fill="white"/>
<circle cx="541.509" cy="326.396" r="1.7703" fill="white"/>
<circle cx="896.12" cy="224.706" r="1.7703" fill="white"/>
<circle cx="1198.58" cy="329.003" r="1.7703" fill="white"/>
<circle cx="1203.8" cy="484.146" r="1.7703" fill="white"/>
<circle cx="926.106" cy="445.034" r="1.7703" fill="white"/>
<circle cx="489.361" cy="177.772" r="1.7703" fill="white"/>
<circle cx="1338.08" cy="158.217" r="1.7703" fill="white"/>
<circle opacity="0.3" cx="53.918" cy="358.989" r="1.7703" fill="white"/>
<circle opacity="0.3" cx="306.841" cy="536.294" r="1.7703" fill="white"/>
<circle opacity="0.3" cx="533.687" cy="669.274" r="1.7703" fill="white"/>
<circle opacity="0.3" cx="774.875" cy="836.15" r="1.7703" fill="white"/>
<circle opacity="0.3" cx="995.203" cy="627.555" r="1.7703" fill="white"/>
<circle opacity="0.3" cx="645.807" cy="475.02" r="1.7703" fill="white"/>
<circle opacity="0.3" cx="426.781" cy="274.247" r="1.7703" fill="white"/>
<circle opacity="0.3" cx="781.393" cy="172.557" r="1.7703" fill="white"/>
<circle opacity="0.3" cx="1083.86" cy="276.855" r="1.7703" fill="white"/>
<circle opacity="0.3" cx="1089.07" cy="431.997" r="1.7703" fill="white"/>
<circle opacity="0.3" cx="811.379" cy="392.886" r="1.7703" fill="white"/>
<circle opacity="0.3" cx="374.635" cy="125.623" r="1.7703" fill="white"/>
<circle opacity="0.3" cx="910.463" cy="117.801" r="1.7703" fill="white"/>
<circle opacity="0.3" cx="1223.35" cy="106.068" r="1.7703" fill="white"/>
<circle opacity="0.67" cx="1.7703" cy="244.262" r="1.7703" fill="white"/>
<circle opacity="0.67" cx="254.693" cy="421.567" r="1.7703" fill="white"/>
<circle opacity="0.67" cx="481.539" cy="554.547" r="1.7703" fill="white"/>
<circle opacity="0.67" cx="943.055" cy="512.828" r="1.7703" fill="white"/>
<circle opacity="0.67" cx="729.245" cy="57.8301" r="1.7703" fill="white"/>
<circle opacity="0.67" cx="1031.71" cy="162.128" r="1.7703" fill="white"/>
<circle opacity="0.67" cx="1036.92" cy="317.27" r="1.7703" fill="white"/>
<circle opacity="0.67" cx="759.23" cy="278.158" r="1.7703" fill="white"/>
<circle opacity="0.67" cx="322.485" cy="10.8963" r="1.7703" fill="white"/>
<circle opacity="0.9" cx="95.6375" cy="296.41" r="1.7703" fill="white"/>
<circle opacity="0.9" cx="348.559" cy="473.716" r="1.7703" fill="white"/>
<circle opacity="0.9" cx="575.406" cy="606.695" r="1.7703" fill="white"/>
<circle opacity="0.9" cx="1036.92" cy="564.976" r="1.7703" fill="white"/>
<circle opacity="0.9" cx="687.525" cy="412.441" r="1.7703" fill="white"/>
<circle opacity="0.9" cx="468.502" cy="211.669" r="1.7703" fill="white"/>
<circle opacity="0.9" cx="823.112" cy="109.979" r="1.7703" fill="white"/>
<circle opacity="0.9" cx="1125.58" cy="214.276" r="1.7703" fill="white"/>
<circle opacity="0.9" cx="1130.79" cy="369.419" r="1.7703" fill="white"/>
<circle opacity="0.9" cx="853.099" cy="330.307" r="1.7703" fill="white"/>
<circle opacity="0.9" cx="416.352" cy="63.0447" r="1.7703" fill="white"/>
<circle opacity="0.9" cx="952.181" cy="55.2227" r="1.7703" fill="white"/>
<circle opacity="0.9" cx="1265.07" cy="43.4893" r="1.7703" fill="white"/>
</g>
<defs>
<clipPath id="clip0_80_24">
<rect width="1444.15" height="890.069" fill="white"/>
</clipPath>
</defs>
</svg>
