<svg width="22" height="22" viewBox="0 0 22 22" fill="none" xmlns="http://www.w3.org/2000/svg">
<path fill-rule="evenodd" clip-rule="evenodd" d="M10.7182 16.4159L7.13645 18.2989C6.99162 18.375 6.82836 18.4091 6.66515 18.3974C6.50194 18.3856 6.34528 18.3284 6.21289 18.2322C6.0805 18.136 5.97765 18.0047 5.91598 17.8532C5.8543 17.7016 5.83626 17.5358 5.8639 17.3745L6.54797 13.3858L3.64942 10.5618C3.53189 10.4476 3.44871 10.3027 3.40933 10.1436C3.36995 9.98451 3.37594 9.81756 3.42661 9.6617C3.47729 9.50583 3.57063 9.36729 3.69604 9.26177C3.82146 9.15626 3.97393 9.088 4.13617 9.06473L8.14064 8.48327L9.93152 4.85416C10.0039 4.70729 10.1159 4.58361 10.255 4.49713C10.394 4.41064 10.5545 4.36481 10.7182 4.36481C10.8819 4.36481 11.0424 4.41064 11.1814 4.49713C11.3205 4.58361 11.4325 4.70729 11.5049 4.85416L13.2958 8.48327L17.3002 9.06473C17.4623 9.08812 17.6146 9.15641 17.7398 9.26186C17.8651 9.36732 17.9583 9.50574 18.009 9.66144C18.0596 9.81715 18.0657 9.98392 18.0264 10.1429C17.9872 10.3019 17.9043 10.4467 17.787 10.5609L14.8884 13.3858L15.5725 17.3745C15.6 17.5357 15.5819 17.7013 15.5203 17.8528C15.4587 18.0042 15.3559 18.1354 15.2237 18.2315C15.0914 18.3276 14.9349 18.3849 14.7719 18.3968C14.6088 18.4087 14.4456 18.3748 14.3008 18.2989L10.7182 16.4159Z" fill="#36B7FF"/>
</svg>
