<svg width="70" height="70" viewBox="0 0 70 70" fill="none" xmlns="http://www.w3.org/2000/svg">
<path d="M62.7083 26.2501C62.7083 34.1365 57.8929 40.8985 51.0416 43.7553V43.7501C51.0416 30.0581 39.9419 18.9584 26.25 18.9584H26.2446C29.1017 12.1073 35.8636 7.29175 43.7499 7.29175C54.2205 7.29175 62.7083 15.7797 62.7083 26.2501ZM20.4166 8.75008C13.9733 8.75008 8.74994 13.9734 8.74994 20.4167V24.7917H14.5833V20.4167C14.5833 17.1951 17.1949 14.5834 20.4166 14.5834H24.7916V8.75008H20.4166ZM55.4166 45.2084V49.5834C55.4166 52.8052 52.805 55.4167 49.5833 55.4167H45.2083V61.2501H49.5833C56.0265 61.2501 61.2499 56.0266 61.2499 49.5834V45.2084H55.4166ZM26.2499 62.7084C36.7205 62.7084 45.2083 54.2206 45.2083 43.7501C45.2083 33.2795 36.7205 24.7917 26.2499 24.7917C15.7795 24.7917 7.29161 33.2795 7.29161 43.7501C7.29161 54.2206 15.7795 62.7084 26.2499 62.7084ZM26.2499 36.4584L33.5416 43.7501L26.2499 51.0417L18.9583 43.7501L26.2499 36.4584Z" fill="white"/>
</svg>
