<svg width="70" height="70" viewBox="0 0 70 70" fill="none" xmlns="http://www.w3.org/2000/svg">
<path d="M2.91656 11.6666H67.0832V17.5H2.91656V11.6666ZM2.91656 52.5H67.0832V58.3333H2.91656V52.5ZM57.2299 43.498L56.7232 40.9605L51.0398 40.9602L50.1371 43.4787L45.5801 43.4889C48.5087 36.4688 50.6819 31.2684 52.0997 27.8882C52.4702 27.0054 53.1287 26.5551 54.0988 26.562C54.8391 26.5675 56.0489 26.5682 57.7286 26.5641L61.2499 43.4898L57.2299 43.498ZM52.3179 37.4844H55.9812L54.6139 31.1252L52.3179 37.4844ZM22.96 26.558L27.5404 26.5639L20.4606 43.498L15.8238 43.4959C14.2561 37.457 13.1049 32.9796 12.3702 30.0638C12.145 29.1695 11.697 28.5454 10.8359 28.2501C10.0681 27.9869 8.78942 27.5798 6.9999 27.0289V26.5641C10.3458 26.5637 12.7848 26.5637 14.3167 26.5641C15.5836 26.5645 16.3221 27.1746 16.5597 28.4274C16.7982 29.6855 17.4007 32.8833 18.3672 38.0213L22.96 26.558ZM33.8315 26.5639L30.2131 43.4962L25.8542 43.4898C25.9402 43.0785 27.1448 37.4345 29.4679 26.558L33.8315 26.5639ZM42.6728 26.25C43.9754 26.25 45.618 26.6538 46.5651 27.0289L45.8003 30.5392C44.9457 30.1968 43.5411 29.7336 42.3581 29.7517C40.6378 29.7782 39.5762 30.4984 39.5762 31.1896C39.5762 32.3117 41.4209 32.8766 43.3206 34.1042C45.4871 35.5043 45.7732 36.7587 45.7464 38.1246C45.7154 40.9564 43.3206 43.75 38.2666 43.75C35.9583 43.7155 35.1294 43.5222 33.2484 42.8563L34.0427 39.193C35.9571 39.9933 36.7691 40.2473 38.4051 40.2473C39.9046 40.2473 41.1917 39.6427 41.2028 38.5898C41.2107 37.8408 40.7516 37.4704 39.0687 36.5438C37.386 35.6174 35.0276 34.3367 35.0579 31.7593C35.0967 28.4614 38.2275 26.25 42.6728 26.25Z" fill="white"/>
</svg>
