<svg width="70" height="70" viewBox="0 0 70 70" fill="none" xmlns="http://www.w3.org/2000/svg">
<path d="M35.0142 37.9249C39.8465 37.9249 43.7642 41.8425 43.7642 46.6749C43.7642 49.1514 42.7352 51.3879 41.0815 52.9798L35.5103 58.3404L43.7642 58.3415V64.1749H26.2641L26.2615 59.1454L37.0366 48.7766C37.5882 48.2449 37.9309 47.5 37.9309 46.6749C37.9309 45.064 36.6251 43.7582 35.0142 43.7582C33.4033 43.7582 32.0975 45.064 32.0975 46.6749H26.2641C26.2641 41.8425 30.1816 37.9249 35.0142 37.9249ZM52.5142 37.9249V49.5915H58.3475V37.9249H64.1809V64.1749H58.3475V55.4249H46.6809V37.9249H52.5142ZM11.6808 35.0082C11.6808 42.3774 15.0969 48.9487 20.4319 53.2248L20.4309 60.2729C11.7129 55.2297 5.84747 45.8039 5.84747 35.0082H11.6808ZM35.0142 5.84155C50.138 5.84155 62.5732 17.3525 64.0368 32.0912L58.167 32.0918C56.7317 20.5815 46.913 11.6749 35.0142 11.6749C27.8279 11.6749 21.4004 14.9236 17.1202 20.0324L23.3475 26.2582H5.84747V8.75822L12.9833 15.8938C18.3309 9.73556 26.2178 5.84155 35.0142 5.84155Z" fill="white"/>
</svg>
