<svg width="70" height="70" viewBox="0 0 70 70" fill="none" xmlns="http://www.w3.org/2000/svg">
<path d="M17.9869 12.7366L34.9997 2.91675L52.0126 12.7366L45.7578 16.3644L34.9997 10.1722L24.2416 16.3644L17.9869 12.7366ZM52.0126 25.1209L45.7578 21.4932L34.9997 27.6853L24.2416 21.4932L17.9869 25.1209V32.3762L28.7449 38.5683V50.9528L34.9997 54.5805L41.2544 50.9528V38.5683L52.0126 32.3762V25.1209ZM52.0126 44.7607V37.5052L45.7578 41.1327V48.3882L52.0126 44.7607ZM56.4532 47.325L45.6951 53.5171V60.7726L62.708 50.9528V31.3128L56.4532 34.9409V47.325ZM50.1987 18.9288L56.4532 22.5565V29.8119L62.708 26.1842V18.9288L56.4532 15.3011L50.1987 18.9288ZM28.7449 56.1442V63.3997L34.9997 67.0274L41.2544 63.3997V56.1442L34.9997 59.7719L28.7449 56.1442ZM17.9869 44.7607L24.2416 48.3882V41.1327L17.9869 37.5052V44.7607ZM28.7449 18.9288L34.9997 22.5565L41.2544 18.9288L34.9997 15.3011L28.7449 18.9288ZM13.546 22.5565L19.8007 18.9288L13.546 15.3011L7.29132 18.9288V26.1842L13.546 29.8119V22.5565ZM13.546 34.9409L7.29132 31.3128V50.9528L24.3041 60.7726V53.5171L13.546 47.325V34.9409Z" fill="white"/>
</svg>
