<svg width="70" height="70" viewBox="0 0 70 70" fill="none" xmlns="http://www.w3.org/2000/svg">
<path d="M35.0005 5.83337C51.1086 5.83337 64.1671 18.8917 64.1671 35C64.1671 51.1082 51.1086 64.1667 35.0005 64.1667C18.8922 64.1667 5.8338 51.1082 5.8338 35C5.8338 18.8917 18.8922 5.83337 35.0005 5.83337ZM46.6797 37.56C45.6723 36.0305 44.9454 34.926 42.1819 35.364C36.9596 36.193 36.3806 37.107 36.1313 38.6094L36.061 39.0667L35.9901 39.5492C35.7051 41.5415 35.7159 42.2952 36.6306 43.2565C40.3208 47.1281 42.5313 49.9188 43.201 51.551C43.5279 52.3495 44.3685 54.7607 43.7901 57.1454C47.359 55.7276 50.5043 53.4719 52.9826 50.6214C53.304 49.5312 53.5362 48.1735 53.5362 46.5261V46.221C53.5362 43.5304 53.5362 42.3034 51.6345 41.2166C50.8321 40.7607 50.2333 40.4863 49.7536 40.2687C48.6826 39.7816 47.9735 39.4617 47.0166 38.0622C46.9025 37.8957 46.7911 37.7295 46.6797 37.56ZM35.0005 11.1806C28.2414 11.1806 22.1398 13.9959 17.8044 18.5178C18.3205 18.8763 18.7703 19.3799 19.0792 20.0742C19.6742 21.4092 19.6742 22.7827 19.6742 23.9973C19.673 24.9557 19.6717 25.8627 19.9794 26.5213C20.4009 27.4206 22.215 27.8025 23.8165 28.1382C24.3886 28.2587 24.9787 28.3816 25.5154 28.5302C26.9914 28.9402 28.1333 30.2648 29.0487 31.3285C29.4285 31.7716 29.9893 32.4226 30.2705 32.5842C30.4172 32.4789 30.888 31.969 31.121 31.1311C31.2983 30.4929 31.2479 29.9242 30.9868 29.6167C29.3561 27.6922 29.4448 23.9844 29.9488 22.6186C30.7427 20.4635 33.2228 20.6226 35.0355 20.7404C35.7115 20.7839 36.3497 20.8257 36.8254 20.766C38.641 20.5382 39.1993 17.7782 39.5942 17.2375C40.4462 16.0703 43.0525 14.3124 44.6715 13.2258C41.7161 11.9112 38.4436 11.1806 35.0005 11.1806Z" fill="white"/>
</svg>
