<svg width="70" height="70" viewBox="0 0 70 70" fill="none" xmlns="http://www.w3.org/2000/svg">
<path d="M57.2572 51.023C56.6108 39.7726 42.2363 34.662 40.8626 34.1338C40.8031 34.107 40.8031 34.0536 40.8328 33.9961L55.6565 19.3501V17.7729C55.6565 17.5241 55.4339 17.3021 55.1814 17.3021H27.8618V5.83337L17.78 7.90814V9.40107H18.3407C18.3407 9.40107 20.8138 9.40107 20.8138 11.8319V17.2753H13.0082C12.8671 17.2753 12.726 17.4131 12.726 17.5509V21.0076H20.8398V39.7726C20.8398 45.6599 24.6869 49.7523 31.4231 49.1969C32.8038 49.0654 34.1335 48.5926 35.2999 47.8191C35.5467 47.6677 35.7517 47.453 35.8946 47.1964C36.0378 46.9394 36.1142 46.6489 36.1166 46.3529V44.4961C33.9259 45.9355 32.0691 45.8515 32.0691 45.8515C27.8024 45.8515 27.8878 40.5152 27.8878 40.5152V21.0038H47.5429L33.3947 35.045L33.3352 38.36C33.3352 38.4175 33.365 38.444 33.4207 38.444C46.3917 40.5995 49.9007 48.8641 49.9007 51.268C49.9007 51.268 51.3045 62.9586 39.429 63.7627C39.429 63.7627 31.6494 64.0918 30.2757 61.0255C30.2199 60.9108 30.2757 60.8035 30.3871 60.7501C31.6792 60.1683 32.548 59.0351 32.548 57.5152C32.548 55.249 31.1445 53.3963 28.196 53.3963C25.812 53.3963 23.8439 55.249 23.8439 57.5152C23.8439 57.5152 22.7225 67.3532 39.4031 67.0778C58.4378 66.7448 57.2572 51.023 57.2572 51.023Z" fill="white"/>
</svg>
