<svg width="70" height="70" viewBox="0 0 70 70" fill="none" xmlns="http://www.w3.org/2000/svg">
<path d="M58.3332 14.5834C58.3332 19.4159 54.4158 23.3334 49.5832 23.3334C44.7505 23.3334 40.8332 19.4159 40.8332 14.5834C40.8332 9.7509 44.7505 5.83337 49.5832 5.83337C54.4158 5.83337 58.3332 9.7509 58.3332 14.5834ZM20.4165 8.75004C13.9732 8.75004 8.74982 13.9734 8.74982 20.4167V26.25H14.5832V20.4167C14.5832 17.195 17.1948 14.5834 20.4165 14.5834H29.1665V8.75004H20.4165ZM49.5832 61.25C56.0264 61.25 61.2498 56.0266 61.2498 49.5834V43.75H55.4165V49.5834C55.4165 52.8051 52.8049 55.4167 49.5832 55.4167H40.8332V61.25H49.5832ZM20.4165 46.6667C25.249 46.6667 29.1665 42.7493 29.1665 37.9167C29.1665 33.0841 25.249 29.1667 20.4165 29.1667C15.584 29.1667 11.6665 33.0841 11.6665 37.9167C11.6665 42.7493 15.584 46.6667 20.4165 46.6667ZM49.5832 26.25C43.1399 26.25 37.9165 31.4735 37.9165 37.9167H61.2498C61.2498 31.4735 56.0264 26.25 49.5832 26.25ZM8.74982 61.25C8.74982 54.8068 13.9732 49.5834 20.4165 49.5834C26.8598 49.5834 32.0832 54.8068 32.0832 61.25H8.74982Z" fill="white"/>
</svg>
