<svg width="70" height="70" viewBox="0 0 70 70" fill="none" xmlns="http://www.w3.org/2000/svg">
<path d="M63.5199 11.6667H55.245L42.1515 24.4154C40.2452 26.2646 37.6762 27.3012 34.9995 27.3012C32.3232 27.3012 29.7542 26.2646 27.848 24.4154L14.7646 11.6667H6.48288L23.7105 28.4492C29.9514 34.5235 40.0626 34.5235 46.299 28.4492L63.5199 11.6667ZM6.48288 58.3334H14.7321L27.8818 45.5441C29.7807 43.704 32.3401 42.6724 35.0062 42.6724C37.6727 42.6724 40.232 43.704 42.1311 45.5441L55.2762 58.3334H63.5199L46.2529 41.5299C40.0355 35.4851 29.9627 35.4851 23.7499 41.5299L6.48288 58.3334Z" fill="white"/>
</svg>
